<?xml version="1.0" encoding="iso-8859-1"?>
<!-- Generator: Adobe Illustrator 19.0.0, SVG Export Plug-In . SVG Version: 6.00 Build 0)  -->
<svg version="1.1" id="Layer_1" xmlns="http://www.w3.org/2000/svg" xmlns:xlink="http://www.w3.org/1999/xlink" x="0px" y="0px"
	 viewBox="0 0 463.075 463.075" style="enable-background:new 0 0 463.075 463.075;" xml:space="preserve">
<g>
	<g>
		<path d="M460.9,27.437l-25.2-25.2c-1.4-1.4-3.3-2.2-5.3-2.2s-3.9,0.8-5.3,2.2l-133.7,133.7c-6.3,5-12.5,7.4-18.9,7.4h-35.8
			c-2,0-3.9,0.8-5.3,2.2L7.2,369.737c-4.6,4.6-7.2,10.7-7.2,17.2s2.5,12.6,7.2,17.2l51.7,51.7c4.6,4.6,10.7,7.2,17.2,7.2
			s12.6-2.5,17.2-7.2l47.4-47.4c8.9,13.2,24,21.7,41.5,21.7c26.8,0,48.6-22.4,48.6-49.9c0-16.8-8.6-31.6-21.5-40.4l108.3-108.1
			c1.4-1.4,2.2-3.3,2.2-5.3v-35.9c0-6.4,2.4-12.6,7.4-18.9l133.7-133.7C463.8,35.137,463.8,30.337,460.9,27.437z M166.6,411.537
			c-11.5-5.6-19.2-17.4-19.2-31.3c0-18.7,15.1-33.4,34.5-33.6c0.7,10,1.3,26.6-0.3,34.8C179.8,390.237,171,404.937,166.6,411.537z
			 M216,380.337c0,19.5-14.8,34.9-33.6,34.9v0c-0.1,0-0.2,0-0.2,0c4.8-7.8,12.2-20.8,14.2-30.8c1.8-9,1.4-24.2,0.8-34.3
			C208.3,355.637,216,367.037,216,380.337z M316.3,161.437c-0.2,0.2-0.4,0.4-0.6,0.6c-7.3,9.1-10.9,18.7-10.9,28.6v32.7l-110,110
			c-4-1.1-8.2-1.6-12.5-1.6c-27.5,0-49.9,21.8-49.9,48.6c0,4.7,0.6,9.3,1.8,13.6l-51.4,51.4c-1.8,1.8-4.1,2.8-6.6,2.8
			s-4.8-1-6.6-2.8l-51.7-51.7c-1.8-1.8-2.8-4.1-2.8-6.6s1-4.8,2.8-6.6l222-222h32.7c9.9,0,19.5-3.7,28.6-10.9
			c0.2-0.2,0.4-0.4,0.6-0.6l128.7-128.7l14.6,14.6L316.3,161.437z"/>
	</g>
</g>
<g>
</g>
<g>
</g>
<g>
</g>
<g>
</g>
<g>
</g>
<g>
</g>
<g>
</g>
<g>
</g>
<g>
</g>
<g>
</g>
<g>
</g>
<g>
</g>
<g>
</g>
<g>
</g>
<g>
</g>
</svg>
